<?xml version="1.0" standalone="no"?>
<!DOCTYPE svg PUBLIC "-//W3C//DTD SVG 20010904//EN"
 "http://www.w3.org/TR/2001/REC-SVG-20010904/DTD/svg10.dtd">
<svg version="1.0" xmlns="http://www.w3.org/2000/svg"
 width="700.000000pt" height="700.000000pt" viewBox="0 0 700.000000 700.000000"
 preserveAspectRatio="xMidYMid meet">
<metadata>
Created by potrace 1.11, written by Peter Selinger 2001-2013
</metadata>
<g transform="translate(0.000000,700.000000) scale(0.100000,-0.100000)"
fill="#000000" stroke="none">
<path d="M1911 6094 c-124 -33 -228 -120 -286 -239 -44 -89 -51 -147 -50 -427
l1 -218 -565 -1 c-311 0 -586 -2 -611 -5 -105 -12 -196 -57 -270 -133 -64 -66
-103 -141 -120 -226 -8 -44 -10 -556 -8 -1930 l3 -1870 36 -75 c59 -123 145
-202 264 -246 48 -18 160 -19 3045 -22 2250 -2 3009 0 3050 9 168 35 304 164
346 329 15 59 17 221 16 1910 0 1015 -3 1861 -6 1880 -24 129 -94 236 -202
305 -53 34 -143 66 -199 71 -16 1 -287 3 -601 3 l-571 1 0 253 c0 268 -6 316
-55 411 -53 105 -188 203 -310 226 -32 6 -572 10 -1452 9 -1188 0 -1409 -3
-1455 -15z m1689 -1578 c13 -3 42 -8 63 -11 41 -7 203 -53 275 -79 115 -43
307 -157 412 -245 293 -246 492 -600 535 -951 3 -25 8 -61 11 -80 6 -44 6
-256 0 -290 -3 -14 -8 -47 -11 -73 -8 -74 -41 -209 -65 -272 -4 -11 -14 -36
-21 -55 -42 -118 -150 -302 -238 -408 -78 -94 -232 -240 -279 -266 -10 -5 -19
-12 -22 -16 -3 -4 -41 -28 -85 -55 -180 -109 -366 -176 -580 -209 -94 -15
-330 -18 -399 -5 -23 4 -59 10 -81 13 -101 14 -258 64 -382 122 -431 199 -744
599 -844 1077 -38 180 -34 446 10 642 36 158 126 367 216 500 92 135 238 290
345 365 19 14 37 27 40 30 18 18 109 73 185 112 166 84 336 137 505 155 30 3
57 7 59 10 7 5 321 -4 351 -11z"/>
<path d="M3200 3950 c-203 -41 -354 -122 -500 -269 -190 -192 -281 -422 -274
-696 10 -411 276 -764 671 -888 228 -72 494 -51 708 56 278 139 480 417 522
722 12 86 7 256 -11 332 -19 85 -63 212 -81 233 -6 8 -15 23 -18 33 -15 41
-95 147 -162 213 -140 139 -308 229 -495 265 -99 19 -262 18 -360 -1z"/>
</g>
</svg>
